<svg width="100" height="47" fill="none" xmlns="http://www.w3.org/2000/svg">
  <path d="M0 42.69h2.77c0 .33.09.63.28.89.19.26.44.46.76.6.31.14.64.21.98.21.36 0 .69-.08.99-.23.29-.16.52-.38.69-.64.17-.27.26-.56.26-.87 0-.42-.16-.8-.46-1.13-.31-.33-.67-.55-1.07-.64-.4-.09-.73-.13-1-.13-.35 0-.72.05-1.11.14l-1.02-1.68 3.32-2.77H.26v-2.53h7.36l1.55 2.57-2.99 2.62c.62.07 1.18.26 1.67.57.5.3.89.71 1.18 1.23.29.52.44 1.13.44 1.83 0 .91-.23 1.68-.7 2.31A4.38 4.38 0 0 1 7 46.43c-.72.3-1.45.45-2.21.45-.86 0-1.65-.19-2.38-.57-.74-.39-1.32-.9-1.76-1.54-.43-.64-.65-1.34-.65-2.08ZM11.07 42.69h2.77c0 .33.09.63.28.89.19.26.44.46.76.6.31.14.64.21.98.21.36 0 .69-.08.99-.23.29-.16.53-.38.7-.64.17-.27.25-.56.25-.87 0-.42-.15-.8-.46-1.13-.31-.33-.67-.55-1.07-.64-.4-.09-.73-.13-1-.13-.35 0-.72.05-1.11.14l-1.02-1.68 3.32-2.77h-5.13v-2.53h7.36l1.55 2.57-2.98 2.62a4 4 0 0 1 1.67.57c.49.3.89.71 1.18 1.23.29.52.43 1.13.43 1.83 0 .91-.23 1.68-.7 2.31a4.25 4.25 0 0 1-1.77 1.39c-.72.3-1.45.45-2.21.45-.85 0-1.65-.19-2.38-.57-.74-.39-1.32-.9-1.76-1.54-.43-.64-.65-1.34-.65-2.08ZM25.82 36.22h4.69l3.39 10.52h-3.28l-.52-1.6h-3.89l-.51 1.6h-3.29l3.41-10.52Zm3.66 6.71-1.24-4.08h-.15l-1.25 4.08h2.64ZM42.15 46.74h-2.83v-1.12h-.16c-.62.9-1.27 1.3-2.19 1.3-1.62 0-2.76-1.27-2.76-3.03v-4.74h2.84v4.22c0 .74.42 1.25 1.09 1.25.66 0 1.18-.53 1.18-1.29v-4.18h2.83v7.59ZM44.01 44.01v-2.9h-1v-1.96h1.11l.51-2.36h2.23v2.36h1.63v1.96h-1.63v2.76c0 .59.36.99.92.99.21 0 .51-.05.75-.11v1.92c-.49.17-1.22.26-1.71.26-1.71 0-2.81-1.18-2.81-2.93v.01ZM49.11 42.95c0-2.49 1.71-3.99 4.42-3.99s4.4 1.52 4.4 3.99-1.72 3.98-4.4 3.98c-2.68 0-4.42-1.51-4.42-3.98Zm5.99 0c0-.99-.65-1.68-1.57-1.68s-1.58.69-1.58 1.68c0 .98.64 1.67 1.58 1.67.94 0 1.57-.69 1.57-1.67ZM59.14 36.22h5.03c2.84 0 4.62 1.47 4.62 3.73s-1.79 3.73-4.65 3.73h-1.82v3.06h-3.18V36.21v.01Zm4.66 5.23c1.08 0 1.79-.59 1.79-1.5s-.71-1.5-1.79-1.5h-1.48v3h1.48ZM77.59 46.74h-2.82v-1.12h-.16c-.62.9-1.27 1.3-2.19 1.3-1.62 0-2.76-1.27-2.76-3.03v-4.74h2.84v4.22c0 .74.42 1.25 1.09 1.25.66 0 1.18-.53 1.18-1.29v-4.18h2.83v7.59h-.01ZM78.93 35.77h2.83v10.97h-2.83V35.77ZM82.79 44.24h2.4c0 .65.58 1.08 1.47 1.08.67 0 1.13-.28 1.13-.74 0-.54-.66-.63-1.48-.7-1.4-.14-3.48-.25-3.48-2.36 0-1.6 1.47-2.6 3.7-2.6 2.22 0 3.76.99 3.76 2.55h-2.51c-.01-.53-.53-.88-1.25-.88-.64 0-1.09.27-1.09.69 0 .57.92.6 1.96.72 1.43.14 3.21.48 3.21 2.28 0 1.69-1.53 2.72-4.01 2.72-2.34 0-3.81-1.05-3.81-2.76ZM91.32 42.92c0-2.41 1.82-3.95 4.41-3.95 2.58 0 4.27 1.55 4.27 3.98 0 .22-.02.6-.05.75h-5.71c.19.82.76 1.34 1.61 1.34.68 0 1.16-.34 1.4-.83l2.44.43c-.39 1.43-2 2.29-3.99 2.29-2.59 0-4.38-1.57-4.38-4.01Zm5.81-.69c-.07-.75-.66-1.37-1.47-1.37-.8 0-1.3.53-1.45 1.37h2.92ZM85.71 26.27l1.32.6c-.62-1.55-1.48-3.69-2.29-5.17l-.36-.67-.58.54c-.89.86-2.54.66-3.15-.4-.66-1-.14-2.46 1.02-2.82l.9-.3c-1.21-1.73-2.55-3.4-4.02-4.93l-.7-.74-.55.87c-.57.97-2.08 1.17-2.88.37-.84-.74-.72-2.16.23-2.75l.95-.62-.89-.73c-1.71-1.4-3.59-2.66-5.5-3.79l-.34 1.14c-.5 1.7-3.07 1.59-3.39-.16-.09-.5.06-1.02.4-1.39l.85-.94c-2.05-.95-4.18-1.83-6.35-2.48l-1.27-.38-.01 1.3c0 1.01-1.08 1.83-2.08 1.55-1-.22-1.56-1.4-1.08-2.27l.63-1.21C53.84.37 51.02.07 48.24 0l.34 1.35c.26.93-.53 1.95-1.53 1.93-.99.05-1.82-.92-1.6-1.86l.3-1.38-1.44.12c-2.33.17-4.67.61-6.94 1.11l.71 1.24c.24.4.27.92.09 1.35-.35.91-1.61 1.27-2.42.69-.41-.27-.66-.72-.69-1.2l-.08-1.38c-2.62.87-5.22 1.98-7.65 3.27l.96.95c.35.34.53.85.46 1.33-.21 1.71-2.72 1.95-3.29.3l-.41-1.18c-1.87 1.24-3.71 2.58-5.35 4.09l-.89.8 1.02.57c1.67.97.82 3.47-1.13 3.33-.58-.04-1.12-.34-1.45-.82l-.55-.78c-1.39 1.59-2.7 3.27-3.84 5.04l-.44.69.78.2c2.16.6 1.98 3.66-.26 4.04-.65.13-1.35-.07-1.86-.5l-.43-.37c-.43.86-.82 1.74-1.19 2.63.35-.19.71-.36 1.08-.52.13-.27.26-.53.4-.8.24.16.5.28.77.36 1.02-.34 2.08-.57 3.15-.74.2-.19.37-.4.51-.64.93-1.42.35-3.39-1.07-4.26.73-1 1.5-1.97 2.33-2.89 1.29 1.14 3.5 1.17 4.75-.12 1.31-1.19 1.32-3.25.26-4.56.83-.68 1.69-1.32 2.57-1.94.41.53.97.94 1.6 1.17 3.22 1.16 5.89-2.04 4.7-4.72.91-.42 1.84-.81 2.77-1.16.27.58.69 1.11 1.23 1.47 2.85 1.94 6.32-.5 5.91-3.42.96-.17 1.92-.32 2.89-.43.33 1.69 1.94 3.11 3.79 3.01 1.85.01 3.4-1.48 3.64-3.18.99.06 1.98.15 2.97.29-.05.63.06 1.28.34 1.85.93 2.04 3.86 2.72 5.62 1.29.53-.4.93-.95 1.17-1.55.99.32 1.97.68 2.94 1.07-.24.61-.31 1.27-.18 1.9.36 2.16 2.94 3.5 4.98 2.59.63-.26 1.17-.69 1.55-1.23.92.58 1.83 1.2 2.7 1.85-1.01 1.35-.9 3.41.45 4.55 1.29 1.23 3.45 1.14 4.73 0 .81.86 1.58 1.75 2.31 2.67-2.28 1.64-1.53 5.49 1.64 5.85.72.08 1.45-.09 2.06-.46a37.15 37.15 0 0 1 1.68 3.41h.01Z" fill="#FCFCFC"/>
  <path d="M76.66 25.64h.11c-5.56-10.12-16.46-17.25-29.2-17.2-9.51-.05-18.91 4.17-25.02 11.24a31.503 31.503 0 0 0-2.87 3.77c.44-.01.87-.01 1.3 0a30.89 30.89 0 0 1 7.58-7.33C35.9 11 45.44 9.04 54.27 10.88c9.38 1.83 17.79 7.14 22.39 14.76ZM80.25 28.55c-3.67-.09-7.36 2.26-8.33 5.4 2.07-2.85 4.75-4.13 8-4.13 3.25-.01 5.92 1.32 7.92 4.03-.95-2.67-3.96-5.2-7.59-5.3Z" fill="#FCFCFC"/>
  <path d="M94.18 33.27c-.39-.37-.76-.76-1.17-1.12-3.27-2.91-7.1-4.64-11.23-5.76-5.37-1.45-10.85-1.79-16.36-1.77-.32 0-.66-.1-.95-.24-2.34-1.17-4.62-2.45-7-3.52-4.33-1.93-8.86-2.94-13.61-2.91-5.72.03-11.38.69-17 1.79-3.91.77-7.76 1.75-11.58 2.89l.02-.01s-5.02.87-6.23-1.08l-2.46-.47s.34 1.71-.51 5.46c-.34.46-.53.99-.45 1.62.2 1.59 1.18 2.73 2.2 3.96.02-.18.03-.25.03-.31.14-6.82 10.64-7.16 13.49-6.53 4.96 1.1 7.42 1.35 20.6 9.6.03-.05-7.4-5.73-11.67-8.06-.97-.53-2.04-.86-3.07-1.24-1.01-.37-2.04-.68-3.06-1.02.02-.06.04-.13.05-.19 1.43.33 2.86.63 4.28 1.01 2.17.57 4.31 1.33 6.5 1.77 2.9.56 5.84.97 8.78 1.3 5.32.61 25.59 1.63 25.87 1.6-.33-.11-20.27-3.02-23.96-3.51-2.68-.36-5.36-.65-8.02-1.14-1.18-.22-2.31-.83-3.45-1.3-1.41-.57-2.8-1.18-4.2-1.78-.19-.08-.38-.19-.56-.28 0-.07 0-.13.01-.19 1.18-.21 2.36-.42 3.55-.6 4.41-.67 8.83-1.09 13.29-.97 1.51.04 2.99.18 4.45.4 3.18.88 6.21 2.21 9.14 3.82.06.03.11.09.24.19-1.53-.17-2.96-.37-4.39-.47-.72-.06-1.24-.25-1.55-.98-.12-.3-.36-.65-.63-.75-.72-.26-1.47-.44-2.23-.58-.58-.1-.88.11-1.14.66-.46.95.19 2.08 1.2 2.15 2.04.14 4.09.31 6.14.47 1.87.14 3.74.33 5.61.41 2.15.09 4.3.04 6.44.12 4.07.16 8.08.72 12.02 1.81 3.66 1.02 6.95 2.65 9.18 6.03.06.09.2.18.3.18 1.06-.05 2.11-.12 3.26-.2-.1-.15-.13-.21-.17-.25v-.01Z" fill="#FCFCFC"/>
</svg>