<svg width="15.125" height="19.25" fill="none" xmlns="http://www.w3.org/2000/svg">
  <path d="M7.56 0C5.55 0 3.63.79 2.21 2.21A7.552 7.552 0 0 0 0 7.56c0 6.47 6.87 11.36 7.16 11.56.12.08.26.13.4.13s.28-.05.39-.13c.3-.2 7.17-5.09 7.17-11.56A7.561 7.561 0 0 0 7.56 0Zm0 4.81c.54 0 1.07.16 1.53.46.45.3.8.73 1.01 1.24.21.5.26 1.05.15 1.58-.1.54-.36 1.03-.75 1.41-.38.39-.87.65-1.41.75-.53.11-1.08.06-1.58-.15-.51-.21-.94-.56-1.24-1.01a2.8 2.8 0 0 1-.46-1.53c0-.73.29-1.43.8-1.95.52-.51 1.22-.8 1.95-.8Z" fill="#FCFCFC"/>
</svg>