<svg width="22.000000" height="22.000000" viewBox="0 0 22 22" fill="none" xmlns="http://www.w3.org/2000/svg" xmlns:xlink="http://www.w3.org/1999/xlink">
	<desc>
			Created with Pixso.
	</desc>
	<defs/>
	<rect id="CaretDown" rx="-0.500000" width="21.000000" height="21.000000" transform="translate(22.500000 0.500000) rotate(90.000000)" fill="#FFFFFF" fill-opacity="0"/>
	<path id="Vector" d="M13.26 18.36L6.38 11.48C6.32 11.42 6.27 11.34 6.23 11.26C6.2 11.17 6.18 11.09 6.18 11C6.18 10.9 6.2 10.82 6.23 10.73C6.27 10.65 6.32 10.57 6.38 10.51L13.26 3.63C13.39 3.5 13.56 3.43 13.75 3.43C13.93 3.43 14.1 3.5 14.23 3.63C14.36 3.76 14.43 3.94 14.43 4.12C14.43 4.3 14.36 4.48 14.23 4.61L7.84 11L14.23 17.38C14.3 17.45 14.35 17.52 14.38 17.61C14.42 17.69 14.43 17.78 14.43 17.87C14.43 17.96 14.42 18.05 14.38 18.13C14.35 18.22 14.3 18.29 14.23 18.36C14.17 18.42 14.09 18.47 14.01 18.51C13.92 18.54 13.84 18.56 13.75 18.56C13.65 18.56 13.57 18.54 13.48 18.51C13.4 18.47 13.32 18.42 13.26 18.36Z" fill="#FCFCFC" fill-opacity="1.000000" fill-rule="nonzero"/>
</svg>
