<svg width="22" height="22" fill="none" xmlns="http://www.w3.org/2000/svg">
  <rect rx="-.5" width="21" height="21" transform="rotate(90 11 11.5)" fill="none"/>
  <path d="m13.26 18.36-6.88-6.88a.855.855 0 0 1-.15-.22.798.798 0 0 1-.05-.26c0-.1.02-.18.05-.27.04-.08.09-.16.15-.22l6.88-6.88c.13-.13.3-.2.49-.2.18 0 .35.07.48.2a.697.697 0 0 1 0 .98L7.84 11l6.39 6.38c.07.07.12.14.15.23.04.08.05.17.05.26s-.01.18-.05.26c-.03.09-.08.16-.15.23-.06.06-.14.11-.22.15-.09.03-.17.05-.26.05-.1 0-.18-.02-.27-.05a.855.855 0 0 1-.22-.15Z" fill="#FCFCFC"/>
</svg>