<svg width="10.313049" height="5.625626" viewBox="0 0 10.313 5.62563" fill="none" xmlns="http://www.w3.org/2000/svg" xmlns:xlink="http://www.w3.org/1999/xlink">
	<desc>
			Created with Pixso.
	</desc>
	<defs/>
	<path id="Vector" d="M10.17 0.8L5.48 5.48C5.44 5.53 5.39 5.56 5.33 5.58C5.27 5.61 5.21 5.62 5.15 5.62C5.09 5.62 5.03 5.61 4.97 5.58C4.92 5.56 4.86 5.53 4.82 5.48L0.13 0.8C0.04 0.71 0 0.59 0 0.46C0 0.34 0.04 0.22 0.13 0.13C0.22 0.04 0.34 0 0.46 0C0.59 0 0.71 0.04 0.8 0.13L5.15 4.49L9.51 0.13C9.55 0.09 9.6 0.05 9.66 0.03C9.72 0.01 9.78 0 9.84 0C9.9 0 9.96 0.01 10.02 0.03C10.08 0.05 10.13 0.09 10.17 0.13C10.21 0.18 10.25 0.23 10.27 0.28C10.3 0.34 10.31 0.4 10.31 0.46C10.31 0.53 10.3 0.59 10.27 0.64C10.25 0.7 10.21 0.75 10.17 0.8Z" fill="#FCFCFC" fill-opacity="1.000000" fill-rule="nonzero"/>
</svg>
