<svg width="15" height="15" fill="none" xmlns="http://www.w3.org/2000/svg">
  <rect rx="0" width="14" height="14" transform="translate(.5 .5)" fill="none"/>
  <path d="m12.51 5.95-4.68 4.69c-.05.04-.1.08-.16.1-.05.02-.11.04-.17.04-.07 0-.13-.02-.18-.04-.06-.02-.11-.06-.16-.1L2.48 5.95a.47.47 0 0 1-.14-.33c0-.12.05-.24.14-.33.08-.09.2-.14.33-.14.12 0 .24.05.33.14L7.5 9.64l4.35-4.35c.04-.05.1-.08.15-.1.06-.03.12-.04.18-.04s.13.01.18.04c.06.02.11.05.15.1.05.04.08.09.11.15a.566.566 0 0 1 0 .36c-.03.06-.06.11-.11.15Z" fill="#FCFCFC"/>
</svg>