<svg width="1920" height="362" fill="none" xmlns="http://www.w3.org/2000/svg">
  <path d="M-75.256 173.087c25.928-26.187 45.053-58.851 79.56-74.915 29.985-13.958 63.157-19.408 95.821-22.455 44.317-4.133 89.072-5.63 133.569-5.42 81.35.385 166.71 14.058 244.875 36.78 99.325 28.873 190.632 78.725 284.559 120.889 107.836 48.408 222.751 89.861 340.892 102.886 93.19 10.274 188.18 5.514 279.52-15.002 38.74-8.699 76.72-21.154 114.02-34.65 49.18-17.792 95.1-42.551 141.31-66.881 45.21-23.802 156.39-84.107 202.1-108.016 27.79-14.54 70.8-37.428 103.37-49.75 37.26-14.099 79.93-16.816 119.14-21.197 32.16-3.592 64.36-6.912 96.5-10.356" stroke="url(#a)" stroke-width="50" stroke-linecap="round"/>
  <defs>
    <linearGradient id="a" x1="1042.36" y1="25" x2="1042.36" y2="336.09" gradientUnits="userSpaceOnUse">
      <stop stop-color="#161616"/>
      <stop offset="1" stop-color="#DD293F" stop-opacity=".6"/>
    </linearGradient>
  </defs>
</svg>