<svg width="2915.768" height="1634.658" viewBox="0 0 2915.77 1634.66" fill="none" xmlns="http://www.w3.org/2000/svg">
  <defs>
    <linearGradient x1="1457.907" y1="25.057" x2="1457.907" y2="1609.646" id="a" gradientUnits="userSpaceOnUse">
      <stop stop-color="#161616"/>
      <stop offset="1" stop-color="#DD293F" stop-opacity=".6"/>
    </linearGradient>
  </defs>
  <path d="M25.05 25.05c33.52 12.89 65.29 47.3 87.79 73.94 24.2 28.64 44.71 62.24 64.43 94.06 28.43 45.85 53.44 92.86 76.35 141.62 39.94 84.98 83.49 166.9 140.66 241.7 72.01 94.19 169.8 179.03 274.34 235.56 122.49 66.24 260.12 88.51 398.14 66.84 180.72-28.39 359.95-75.64 534.82-128.5 155.61-47.05 301.76-113.51 424.75-221.59 54.65-48.03 119.44-106.5 135.12-180.88 5.67-26.96 6.06-59.12-6.03-84.3-29.8-62.08-94.8-87.85-158.96-100.68-57.25-11.45-115.75-13.29-174.02-11.8-64.71 1.66-126.21 21.72-185.1 47.33-51.12 22.23-102.44 50-145.95 85.14-43.21 34.9-77.99 81.35-105.02 129.58-51.01 91.04-75.72 189.39-61.9 293.84 15.32 115.76 72.43 224.34 140.06 317.34 94.73 130.25 232.19 223.12 374.77 293.72 167.74 83.06 346.67 153.01 528.8 196.78 95.04 22.84 191.78 39.4 287.82 57.56 77.9 14.73 156.32 26.56 234.84 37.34"/>
  <path d="M25.05 25.05c33.52 12.89 65.29 47.3 87.79 73.94 24.2 28.64 44.71 62.24 64.43 94.06 28.43 45.85 53.44 92.86 76.35 141.62 39.94 84.98 83.49 166.9 140.66 241.7 72.01 94.19 169.8 179.03 274.34 235.56 122.49 66.24 260.12 88.51 398.14 66.84 180.72-28.39 359.95-75.64 534.82-128.5 155.61-47.05 301.76-113.51 424.75-221.59 54.65-48.03 119.44-106.5 135.12-180.88 5.67-26.96 6.06-59.12-6.03-84.3-29.8-62.08-94.8-87.85-158.96-100.68-57.25-11.45-115.75-13.29-174.02-11.8-64.71 1.66-126.21 21.72-185.1 47.33-51.12 22.23-102.44 50-145.95 85.14-43.21 34.9-77.99 81.35-105.02 129.58-51.01 91.04-75.72 189.39-61.9 293.84 15.32 115.76 72.43 224.34 140.06 317.34 94.73 130.25 232.19 223.12 374.77 293.72 167.74 83.06 346.67 153.01 528.8 196.78 95.04 22.84 191.78 39.4 287.82 57.56 77.9 14.73 156.32 26.56 234.84 37.34" stroke="url(#a)" stroke-width="50" stroke-linecap="round"/>
</svg>