<svg width="1120.048218" height="3438.000977" viewBox="0 0 1120.05 3438" fill="none" xmlns="http://www.w3.org/2000/svg" xmlns:xlink="http://www.w3.org/1999/xlink">
	<desc>
			Created with Pixso.
	</desc>
	<defs>
		<linearGradient x1="560.048340" y1="-57.116486" x2="560.048340" y2="3412.952637" id="paint_linear_68_1686_0" gradientUnits="userSpaceOnUse">
			<stop stop-color="#161616"/>
			<stop offset="1.000000" stop-color="#DD293F" stop-opacity="0.600000"/>
		</linearGradient>
	</defs>
	<path id="line" d="M277.84 32.53C287.39 22.77 298.14 25.22 308.31 25.22C341.75 25.22 372.84 31.01 405.74 46.13C506.66 92.53 605.89 162.58 702.6 243.07C780.51 307.91 857 379.96 930.75 467.01C978.46 523.32 1022.59 598.11 1059.36 687.9C1084.82 750.11 1095.05 816.54 1095.05 901.08C1095.05 1100.9 1068.15 1303.84 1037.81 1489.46C1021.85 1587.14 996.57 1669.03 970.24 1753.6C939.2 1853.29 902.29 1933.89 862.04 2013.48C780.22 2175.24 679.6 2275.57 579.74 2364.11C526.59 2411.23 473.25 2457.13 420.22 2505.01C375.4 2545.47 327.64 2589.84 289.67 2659.31C255.82 2721.24 224.14 2792.15 196.75 2869.24C181.55 2912.05 169.39 2960.25 156.03 3006.08C115.12 3146.55 69.75 3278.76 25.04 3412.95" stroke="url(#paint_linear_68_1686_0)" stroke-opacity="1.000000" stroke-width="50.000000" stroke-linecap="round"/>
</svg>
