<svg width="2915.768311" height="1634.658081" viewBox="0 0 2915.77 1634.66" fill="none" xmlns="http://www.w3.org/2000/svg" xmlns:xlink="http://www.w3.org/1999/xlink">
	<desc>
			Created with Pixso.
	</desc>
	<defs>
		<linearGradient x1="1457.906616" y1="25.057220" x2="1457.906616" y2="1609.645508" id="paint_linear_39_1919_0" gradientUnits="userSpaceOnUse">
			<stop stop-color="#161616"/>
			<stop offset="1.000000" stop-color="#DD293F" stop-opacity="0.600000"/>
		</linearGradient>
	</defs>
	<path id="line" d="M25.05 25.05C58.57 37.94 90.34 72.35 112.84 98.99C137.04 127.63 157.55 161.23 177.27 193.05C205.7 238.9 230.71 285.91 253.62 334.67C293.56 419.65 337.11 501.57 394.28 576.37C466.29 670.56 564.08 755.4 668.62 811.93C791.11 878.17 928.74 900.44 1066.76 878.77C1247.48 850.38 1426.71 803.13 1601.58 750.27C1757.19 703.22 1903.34 636.76 2026.33 528.68C2080.98 480.65 2145.77 422.18 2161.45 347.8C2167.12 320.84 2167.51 288.68 2155.42 263.5C2125.62 201.42 2060.62 175.65 1996.46 162.82C1939.21 151.37 1880.71 149.53 1822.44 151.02C1757.73 152.68 1696.23 172.74 1637.34 198.35C1586.22 220.58 1534.9 248.35 1491.39 283.49C1448.18 318.39 1413.4 364.84 1386.37 413.07C1335.36 504.11 1310.65 602.46 1324.47 706.91C1339.79 822.67 1396.9 931.25 1464.53 1024.25C1559.26 1154.5 1696.72 1247.37 1839.3 1317.97C2007.04 1401.03 2185.97 1470.98 2368.1 1514.75C2463.14 1537.59 2559.88 1554.15 2655.92 1572.31C2733.82 1587.04 2812.24 1598.87 2890.76 1609.65" stroke="#161616" stroke-opacity="0" stroke-width="50.000000" stroke-linecap="round"/>
	<path id="line" d="M25.05 25.05C58.57 37.94 90.34 72.35 112.84 98.99C137.04 127.63 157.55 161.23 177.27 193.05C205.7 238.9 230.71 285.91 253.62 334.67C293.56 419.65 337.11 501.57 394.28 576.37C466.29 670.56 564.08 755.4 668.62 811.93C791.11 878.17 928.74 900.44 1066.76 878.77C1247.48 850.38 1426.71 803.13 1601.58 750.27C1757.19 703.22 1903.34 636.76 2026.33 528.68C2080.98 480.65 2145.77 422.18 2161.45 347.8C2167.12 320.84 2167.51 288.68 2155.42 263.5C2125.62 201.42 2060.62 175.65 1996.46 162.82C1939.21 151.37 1880.71 149.53 1822.44 151.02C1757.73 152.68 1696.23 172.74 1637.34 198.35C1586.22 220.58 1534.9 248.35 1491.39 283.49C1448.18 318.39 1413.4 364.84 1386.37 413.07C1335.36 504.11 1310.65 602.46 1324.47 706.91C1339.79 822.67 1396.9 931.25 1464.53 1024.25C1559.26 1154.5 1696.72 1247.37 1839.3 1317.97C2007.04 1401.03 2185.97 1470.98 2368.1 1514.75C2463.14 1537.59 2559.88 1554.15 2655.92 1572.31C2733.82 1587.04 2812.24 1598.87 2890.76 1609.65" stroke="url(#paint_linear_39_1919_0)" stroke-opacity="1.000000" stroke-width="50.000000" stroke-linecap="round"/>
</svg>
