<svg width="2509.342285" height="3437.726318" viewBox="0 0 2509.34 3437.73" fill="none" xmlns="http://www.w3.org/2000/svg" xmlns:xlink="http://www.w3.org/1999/xlink">
	<desc>
			Created with Pixso.
	</desc>
	<defs>
		<linearGradient x1="1254.720215" y1="-57.104408" x2="1254.720215" y2="3412.628906" id="paint_linear_39_1983_0" gradientUnits="userSpaceOnUse">
			<stop stop-color="#161616"/>
			<stop offset="1.000000" stop-color="#DD293F" stop-opacity="0.600000"/>
		</linearGradient>
	</defs>
	<path id="line" d="M606.1 32.53C628.05 22.78 652.76 25.22 676.14 25.22C753 25.22 824.46 31.01 900.06 46.13C1132.02 92.53 1360.1 162.57 1582.38 243.05C1761.44 307.89 1937.24 379.93 2106.75 466.97C2216.38 523.28 2317.82 598.05 2402.33 687.84C2460.86 750.04 2484.34 816.47 2484.34 901C2484.34 1100.8 2422.52 1303.72 2352.79 1489.33C2316.1 1587 2258.01 1668.88 2197.49 1753.44C2126.14 1853.12 2041.32 1933.71 1948.81 2013.29C1760.77 2175.04 1529.51 2275.36 1299.99 2363.88C1177.82 2411.01 1055.24 2456.9 933.35 2504.77C830.34 2545.23 720.58 2589.6 633.31 2659.06C555.51 2720.98 482.68 2791.89 419.74 2868.97C384.8 2911.77 356.84 2959.97 326.15 3005.8C232.11 3146.26 127.85 3278.45 25.09 3412.63" stroke="url(#paint_linear_39_1983_0)" stroke-opacity="1.000000" stroke-width="50.000000" stroke-linecap="round"/>
</svg>
