<svg width="2509.342" height="3437.726" viewBox="0 0 2509.34 3437.73" fill="none" xmlns="http://www.w3.org/2000/svg">
  <defs>
    <linearGradient x1="1254.72" y1="-57.104" x2="1254.72" y2="3412.629" id="a" gradientUnits="userSpaceOnUse">
      <stop stop-color="#161616"/>
      <stop offset="1" stop-color="#DD293F" stop-opacity=".6"/>
    </linearGradient>
  </defs>
  <path d="M606.1 32.53c21.95-9.75 46.66-7.31 70.04-7.31 76.86 0 148.32 5.79 223.92 20.91 231.96 46.4 460.04 116.44 682.32 196.92 179.06 64.84 354.86 136.88 524.37 223.92 109.63 56.31 211.07 131.08 295.58 220.87 58.53 62.2 82.01 128.63 82.01 213.16 0 199.8-61.82 402.72-131.55 588.33-36.69 97.67-94.78 179.55-155.3 264.11-71.35 99.68-156.17 180.27-248.68 259.85-188.04 161.75-419.3 262.07-648.82 350.59-122.17 47.13-244.75 93.02-366.64 140.89-103.01 40.46-212.77 84.83-300.04 154.29-77.8 61.92-150.63 132.83-213.57 209.91-34.94 42.8-62.9 91-93.59 136.83-94.04 140.46-198.3 272.65-301.06 406.83" stroke="url(#a)" stroke-width="50" stroke-linecap="round"/>
</svg>