<svg width="1120.048" height="3438.001" viewBox="0 0 1120.05 3438" fill="none" xmlns="http://www.w3.org/2000/svg">
  <defs>
    <linearGradient x1="560.048" y1="-57.116" x2="560.048" y2="3412.953" id="a" gradientUnits="userSpaceOnUse">
      <stop stop-color="#161616"/>
      <stop offset="1" stop-color="#DD293F" stop-opacity=".6"/>
    </linearGradient>
  </defs>
  <path d="M277.84 32.53c9.55-9.76 20.3-7.31 30.47-7.31 33.44 0 64.53 5.79 97.43 20.91 100.92 46.4 200.15 116.45 296.86 196.94 77.91 64.84 154.4 136.89 228.15 223.94 47.71 56.31 91.84 131.1 128.61 220.89 25.46 62.21 35.69 128.64 35.69 213.18 0 199.82-26.9 402.76-57.24 588.38-15.96 97.68-41.24 179.57-67.57 264.14-31.04 99.69-67.95 180.29-108.2 259.88-81.82 161.76-182.44 262.09-282.3 350.63-53.15 47.12-106.49 93.02-159.52 140.9-44.82 40.46-92.58 84.83-130.55 154.3-33.85 61.93-65.53 132.84-92.92 209.93-15.2 42.81-27.36 91.01-40.72 136.84-40.91 140.47-86.28 272.68-130.99 406.87" stroke="url(#a)" stroke-width="50" stroke-linecap="round"/>
</svg>