<svg width="40" height="30" fill="none" xmlns="http://www.w3.org/2000/svg">
  <path d="M40 12.5v10c0 .33-.14.64-.37.88-.24.23-.55.37-.88.37-.34 0-.65-.14-.89-.37-.23-.24-.36-.55-.36-.88v-3.75H35v2.5c0 .66-.27 1.29-.74 1.76s-1.1.74-1.76.74h-1.99L25 29.26a2.518 2.518 0 0 1-1.77.74H13.01c-.33 0-.65-.07-.95-.19-.31-.13-.58-.31-.81-.55l-5.52-5.51c-.24-.24-.42-.51-.55-.82-.12-.3-.19-.62-.18-.95v-3.23H2.5v3.75c0 .33-.14.64-.37.88-.24.23-.55.37-.88.37-.34 0-.65-.14-.89-.37-.23-.24-.36-.55-.36-.88v-10c0-.34.13-.65.36-.89a1.266 1.266 0 0 1 1.77 0c.23.24.37.55.37.89v3.75H5V7.5c0-.67.26-1.3.73-1.77S6.83 5 7.5 5h10V2.5h-3.75c-.34 0-.65-.14-.89-.37a1.266 1.266 0 0 1 0-1.77c.24-.23.55-.36.89-.36h10c.33 0 .64.13.88.36.23.24.37.55.37.89 0 .33-.14.64-.37.88-.24.23-.55.37-.88.37H20V5h3.23c.33-.01.65.06.95.18.31.13.58.31.82.55l5.51 5.52h1.99c.66 0 1.29.26 1.76.73s.74 1.1.74 1.77v2.5h2.5V12.5c0-.34.13-.65.36-.89a1.266 1.266 0 0 1 1.77 0c.23.24.37.55.37.89Z" fill="#FCFCFC"/>
</svg>