<svg width="22.749939" height="22.672363" viewBox="0 0 22.7499 22.6724" fill="none" xmlns="http://www.w3.org/2000/svg" xmlns:xlink="http://www.w3.org/1999/xlink">
	<desc>
			Created with Pixso.
	</desc>
	<defs/>
	<path id="Vector" d="M22.74 11.37C22.74 14.15 21.72 16.83 19.88 18.91C18.03 20.99 15.49 22.33 12.73 22.66C12.67 22.67 12.61 22.66 12.55 22.64C12.49 22.63 12.44 22.59 12.39 22.55C12.34 22.51 12.31 22.46 12.28 22.4C12.26 22.35 12.24 22.29 12.24 22.23L12.24 13.99L14.87 13.99C14.99 13.99 15.11 13.97 15.22 13.92C15.33 13.87 15.43 13.8 15.51 13.72C15.59 13.63 15.66 13.53 15.7 13.41C15.74 13.3 15.75 13.18 15.74 13.06C15.73 12.84 15.62 12.63 15.45 12.48C15.29 12.32 15.07 12.24 14.84 12.24L12.24 12.24L12.24 9.62C12.24 9.15 12.43 8.71 12.76 8.38C13.09 8.05 13.53 7.87 13.99 7.87L15.74 7.87C15.86 7.87 15.98 7.84 16.09 7.8C16.2 7.75 16.3 7.68 16.39 7.59C16.47 7.5 16.53 7.4 16.57 7.29C16.61 7.18 16.63 7.06 16.62 6.94C16.6 6.71 16.5 6.5 16.33 6.35C16.16 6.2 15.94 6.12 15.72 6.12L13.99 6.12C13.07 6.12 12.18 6.49 11.52 7.14C10.86 7.8 10.49 8.69 10.49 9.62L10.49 12.24L7.87 12.24C7.75 12.24 7.63 12.27 7.52 12.32C7.41 12.36 7.31 12.43 7.23 12.52C7.15 12.61 7.08 12.71 7.04 12.82C7 12.94 6.99 13.06 6.99 13.18C7.01 13.4 7.12 13.61 7.29 13.76C7.45 13.91 7.67 14 7.9 13.99L10.49 13.99L10.49 22.23C10.5 22.29 10.48 22.35 10.46 22.41C10.43 22.46 10.4 22.51 10.35 22.56C10.3 22.6 10.25 22.63 10.19 22.65C10.13 22.67 10.07 22.67 10.01 22.66C7.18 22.32 4.58 20.92 2.72 18.75C0.87 16.58 -0.1 13.79 0 10.94C0.22 5.03 5.01 0.23 10.92 0C12.45 -0.06 13.97 0.19 15.4 0.74C16.84 1.28 18.14 2.11 19.25 3.17C20.35 4.23 21.23 5.5 21.83 6.91C22.43 8.32 22.74 9.84 22.74 11.37Z" fill="#FCFCFC" fill-opacity="1.000000" fill-rule="nonzero"/>
</svg>
