<svg width="22.75" height="22.672" fill="none" xmlns="http://www.w3.org/2000/svg">
  <path d="M22.74 11.37c0 2.78-1.02 5.46-2.86 7.54a11.386 11.386 0 0 1-7.15 3.75c-.06.01-.12 0-.18-.02a.367.367 0 0 1-.16-.09.418.418 0 0 1-.11-.15.471.471 0 0 1-.04-.17v-8.24h2.63c.12 0 .24-.02.35-.07.11-.05.21-.12.29-.2a.824.824 0 0 0 .23-.66.836.836 0 0 0-.29-.58.853.853 0 0 0-.61-.24h-2.6V9.62c0-.47.19-.91.52-1.24.33-.33.77-.51 1.23-.51h1.75c.12 0 .24-.03.35-.07.11-.05.21-.12.3-.21.08-.09.14-.19.18-.3.04-.11.06-.23.05-.35a.88.88 0 0 0-.29-.59.926.926 0 0 0-.61-.23h-1.73c-.92 0-1.81.37-2.47 1.02-.66.66-1.03 1.55-1.03 2.48v2.62H7.87c-.12 0-.24.03-.35.08-.11.04-.21.11-.29.2-.08.09-.15.19-.19.3-.04.12-.05.24-.05.36.02.22.13.43.3.58.16.15.38.24.61.23h2.59v8.24a.38.38 0 0 1-.03.18c-.03.05-.06.1-.11.15-.05.04-.1.07-.16.09-.06.02-.12.02-.18.01-2.83-.34-5.43-1.74-7.29-3.91A11.427 11.427 0 0 1 0 10.94C.22 5.03 5.01.23 10.92 0c1.53-.06 3.05.19 4.48.74a11.334 11.334 0 0 1 6.43 6.17c.6 1.41.91 2.93.91 4.46Z" fill="#FCFCFC"/>
</svg>