<svg width="32.705017" height="32.705078" viewBox="0 0 32.705 32.7051" fill="none" xmlns="http://www.w3.org/2000/svg" xmlns:xlink="http://www.w3.org/1999/xlink">
	<desc>
			Created with Pixso.
	</desc>
	<defs/>
	<path id="Vector" d="M30.1 16.68C30.1 16.46 30.1 16.23 30.1 16.01L32.43 13.1C32.55 12.94 32.63 12.76 32.67 12.57C32.71 12.38 32.71 12.18 32.66 11.99C32.27 10.56 31.7 9.18 30.96 7.89C30.86 7.72 30.72 7.58 30.56 7.47C30.4 7.37 30.21 7.3 30.02 7.28L26.31 6.86C26.16 6.7 26 6.55 25.85 6.4L25.41 2.68C25.39 2.49 25.32 2.3 25.21 2.14C25.1 1.98 24.96 1.84 24.79 1.74C23.51 1 22.13 0.43 20.69 0.05C20.5 -0.01 20.3 -0.01 20.11 0.03C19.92 0.07 19.74 0.15 19.59 0.28L16.68 2.6C16.46 2.6 16.23 2.6 16.01 2.6L13.1 0.27C12.94 0.15 12.76 0.06 12.57 0.02C12.38 -0.02 12.18 -0.01 11.99 0.04C10.56 0.42 9.18 0.99 7.89 1.74C7.72 1.84 7.58 1.97 7.47 2.13C7.37 2.3 7.3 2.48 7.28 2.67L6.86 6.39C6.7 6.54 6.55 6.7 6.4 6.86L2.68 7.28C2.49 7.31 2.3 7.37 2.14 7.48C1.98 7.59 1.84 7.73 1.74 7.9C1 9.18 0.43 10.56 0.04 12C-0.01 12.19 -0.01 12.39 0.03 12.58C0.07 12.77 0.15 12.95 0.28 13.1L2.6 16.01C2.6 16.23 2.6 16.46 2.6 16.68L0.27 19.6C0.15 19.75 0.06 19.93 0.02 20.12C-0.02 20.31 -0.01 20.51 0.04 20.7C0.42 22.13 0.99 23.51 1.74 24.8C1.84 24.97 1.97 25.11 2.13 25.22C2.3 25.32 2.48 25.39 2.67 25.41L6.38 25.83C6.54 25.99 6.69 26.15 6.85 26.3L7.28 30.01C7.31 30.2 7.37 30.39 7.48 30.55C7.59 30.72 7.73 30.85 7.9 30.95C9.18 31.69 10.56 32.26 12 32.65C12.19 32.7 12.39 32.7 12.58 32.66C12.77 32.62 12.95 32.54 13.1 32.41L16.01 30.1C16.23 30.1 16.46 30.1 16.68 30.1L19.6 32.43C19.75 32.55 19.93 32.63 20.12 32.67C20.31 32.71 20.51 32.71 20.7 32.66C22.13 32.28 23.51 31.7 24.8 30.96C24.97 30.86 25.11 30.72 25.22 30.56C25.32 30.4 25.39 30.21 25.41 30.02L25.83 26.31C25.99 26.16 26.15 26 26.3 25.85L30.01 25.41C30.2 25.39 30.39 25.32 30.55 25.21C30.72 25.1 30.85 24.96 30.95 24.79C31.69 23.51 32.26 22.13 32.65 20.69C32.7 20.5 32.7 20.3 32.66 20.11C32.62 19.92 32.54 19.74 32.41 19.59L30.1 16.68ZM16.35 22.6C15.11 22.6 13.9 22.23 12.87 21.54C11.85 20.86 11.04 19.88 10.57 18.74C10.1 17.59 9.97 16.34 10.22 15.13C10.46 13.91 11.05 12.8 11.93 11.93C12.8 11.05 13.91 10.46 15.13 10.22C16.34 9.97 17.59 10.1 18.74 10.57C19.88 11.04 20.86 11.85 21.54 12.87C22.23 13.9 22.6 15.11 22.6 16.35C22.6 18 21.94 19.59 20.76 20.76C19.59 21.94 18 22.6 16.35 22.6Z" fill="#FCFCFC" fill-opacity="1.000000" fill-rule="nonzero"/>
</svg>
