<svg width="32.705" height="32.705" fill="none" xmlns="http://www.w3.org/2000/svg">
  <path d="M30.1 16.68v-.67l2.33-2.91c.12-.16.2-.34.24-.53.04-.19.04-.39-.01-.58-.39-1.43-.96-2.81-1.7-4.1-.1-.17-.24-.31-.4-.42-.16-.1-.35-.17-.54-.19l-3.71-.42c-.15-.16-.31-.31-.46-.46l-.44-3.72c-.02-.19-.09-.38-.2-.54-.11-.16-.25-.3-.42-.4a16.72 16.72 0 0 0-4.1-1.69c-.19-.06-.39-.06-.58-.02-.19.04-.37.12-.52.25L16.68 2.6h-.67L13.1.27a1.36 1.36 0 0 0-.53-.25c-.19-.04-.39-.03-.58.02-1.43.38-2.81.95-4.1 1.7-.17.1-.31.23-.42.39-.1.17-.17.35-.19.54l-.42 3.72c-.16.15-.31.31-.46.47l-3.72.42c-.19.03-.38.09-.54.2-.16.11-.3.25-.4.42C1 9.18.43 10.56.04 12c-.05.19-.05.39-.01.58.04.19.12.37.25.52l2.32 2.91v.67L.27 19.6c-.12.15-.21.33-.25.52-.04.19-.03.39.02.58.38 1.43.95 2.81 1.7 4.1.1.17.23.31.39.42.17.1.35.17.54.19l3.71.42c.16.16.31.32.47.47l.43 3.71c.03.19.09.38.2.54.11.17.25.3.42.4 1.28.74 2.66 1.31 4.1 1.7.19.05.39.05.58.01.19-.04.37-.12.52-.25l2.91-2.31h.67l2.92 2.33c.15.12.33.2.52.24.19.04.39.04.58-.01 1.43-.38 2.81-.96 4.1-1.7.17-.1.31-.24.42-.4.1-.16.17-.35.19-.54l.42-3.71c.16-.15.32-.31.47-.46l3.71-.44c.19-.02.38-.09.54-.2.17-.11.3-.25.4-.42.74-1.28 1.31-2.66 1.7-4.1.05-.19.05-.39.01-.58-.04-.19-.12-.37-.25-.52l-2.31-2.91ZM16.35 22.6c-1.24 0-2.45-.37-3.48-1.06a6.239 6.239 0 0 1-2.3-2.8c-.47-1.15-.6-2.4-.35-3.61.24-1.22.83-2.33 1.71-3.2.87-.88 1.98-1.47 3.2-1.71 1.21-.25 2.46-.12 3.61.35 1.14.47 2.12 1.28 2.8 2.3a6.251 6.251 0 0 1 1.06 3.48c0 1.65-.66 3.24-1.84 4.41a6.214 6.214 0 0 1-4.41 1.84Z" fill="#FCFCFC"/>
</svg>