<svg width="39.146" height="27.504" fill="none" xmlns="http://www.w3.org/2000/svg">
  <path d="M18.28 26.55c-.07.27-.22.51-.44.68-.22.18-.49.27-.77.27-.11 0-.21-.01-.31-.04l-5-1.25a1.18 1.18 0 0 1-.4-.17l-3.75-2.5c-.27-.19-.46-.47-.53-.8-.06-.32 0-.66.19-.94.18-.27.47-.46.79-.53.33-.06.67 0 .94.19l3.57 2.38 4.79 1.2c.16.04.31.11.45.2.13.1.24.22.33.36.08.14.14.3.16.46.03.17.02.33-.02.49Zm20.73-15.07c-.1.31-.26.6-.48.85-.21.25-.47.45-.77.6l-3.7 1.85-2.35 2.35-6.25 6.25a1.262 1.262 0 0 1-1.19.33l-10-2.5c-.15-.04-.3-.1-.42-.19l-8.68-6.2-3.79-1.89c-.6-.3-1.05-.82-1.26-1.45a2.49 2.49 0 0 1 .14-1.91l3.88-7.76c.3-.59.82-1.04 1.45-1.25.62-.21 1.31-.17 1.9.13l3.45 1.72L19.22.04c.23-.06.47-.06.69 0l8.28 2.37L31.64.69c.59-.3 1.28-.34 1.91-.13.63.21 1.14.66 1.44 1.25l3.88 7.76c.15.3.24.62.26.94.03.33-.01.66-.12.97Zm-10.07 4.87-4.33-3.46c-3.05 2.5-6.93 2.83-10.14.78-.32-.2-.58-.47-.78-.79-.2-.32-.32-.68-.36-1.05-.04-.37 0-.75.12-1.1.13-.36.33-.68.6-.94 0-.01 0-.01.01-.01l7.01-6.8-1.5-.43-7.88 2.25-4.28 8.55 7.69 5.49 9.08 2.28 4.76-4.77Zm2.85-2.85L27.55 5h-4.98l-6.75 6.56c1.98 1.27 5.08 1.61 7.86-1.19a1.255 1.255 0 0 1 1.67-.1l5.38 4.31 1.06-1.08Z" fill="#FCFCFC"/>
</svg>