<svg width="27" height="27" fill="none" xmlns="http://www.w3.org/2000/svg">
  <mask id="a" fill="#fff">
    <path fill-rule="evenodd" clip-rule="evenodd" d="M23.748 19.354a11.707 11.707 0 0 0 1.656-6.02c0-6.496-5.266-11.762-11.761-11.762-6.496 0-11.762 5.266-11.762 11.761 0 6.496 5.266 11.761 11.762 11.761 2.204 0 4.267-.606 6.031-1.662l5.567 1.492-1.492-5.57Z"/>
  </mask>
  <path d="m23.748 19.354-1.652-.987a1.925 1.925 0 0 0-.206 1.485l1.858-.498Zm-4.074 4.078.498-1.859a1.925 1.925 0 0 0-1.486.208l.988 1.651Zm5.567 1.492-.498 1.86a1.925 1.925 0 0 0 2.357-2.358l-1.859.498Zm-1.761-11.59a9.782 9.782 0 0 1-1.384 5.033l3.305 1.973a13.631 13.631 0 0 0 1.928-7.007h-3.85Zm-9.837-9.838c5.433 0 9.837 4.404 9.837 9.837h3.849c0-7.558-6.128-13.686-13.686-13.686v3.85Zm-9.837 9.837c0-5.433 4.404-9.837 9.837-9.837V-.353C6.084-.353-.043 5.775-.043 13.333h3.849Zm9.837 9.837c-5.433 0-9.837-4.404-9.837-9.837h-3.85c0 7.559 6.128 13.686 13.687 13.686v-3.85Zm5.043-1.389a9.782 9.782 0 0 1-5.043 1.389v3.85c2.562 0 4.965-.707 7.02-1.936l-1.977-3.303Zm.49 3.51 5.567 1.492.996-3.718-5.567-1.492-.996 3.718Zm7.924-.865-1.492-5.57-3.718.996 1.492 5.57 3.718-.996Z" fill="#fff" mask="url(#a)"/>
</svg>