<svg width="25.661" height="25.661" fill="none" xmlns="http://www.w3.org/2000/svg">
  <defs>
    <clipPath id="a">
      <rect rx="-.535" width="24.592" height="24.592" transform="translate(.535 .535)" fill="#fff" fill-opacity="0"/>
    </clipPath>
  </defs>
  <g clip-path="url(#a)">
    <path d="M11.75 3.91C9.77 2.17 7.11 1.66 4.89 2.62c-2.33 1-3.88 3.51-3.82 6.26.04 2.08.91 3.87 2.07 5.53 2.57 3.7 6.08 6.44 9.68 9.06.13.1.5.04.66-.08 2.62-1.9 5.17-3.89 7.38-6.28 1.8-1.95 3.4-4.04 4.05-6.68.73-2.92-.5-6-2.93-7.46-2.34-1.41-5.36-1.02-7.61 1-.02.02-.04.03-.05.05-.42.38-.79.81-1.18 1.22-.41-.39-.75-.72-1.09-1.06l-.3-.27Zm3.17 2.24q.47-.51.69-.71 1.61-1.46 3.22-1.47 1.08 0 2.16.65 1.33.8 1.88 1.97.66 1.41.18 3.37-.66 2.66-3.61 5.84-2.27 2.46-6.34 5.48-5.91-4.41-8.38-7.97-1.69-2.43-1.73-4.47-.04-1.9.86-3.09.65-.87 1.8-1.36 1.05-.46 2.06-.37 1.55.13 2.99 1.54l2.49 2.41 1.34-1.4.39-.42Z" fill="#FFF" fill-rule="evenodd"/>
  </g>
</svg>