<svg width="139.533" height="54.854" fill="none" xmlns="http://www.w3.org/2000/svg">
  <path d="m125.93 41.31 2.08.96c-.97-2.45-2.32-5.81-3.59-8.13l-.58-1.06-.91.84c-1.4 1.36-3.99 1.04-4.95-.63-1.05-1.57-.23-3.86 1.61-4.43l1.41-.47c-1.91-2.72-4.01-5.35-6.33-7.75l-1.1-1.16-.86 1.36c-.91 1.53-3.27 1.85-4.53.59-1.32-1.17-1.14-3.41.36-4.33l1.5-.98-1.41-1.14c-2.68-2.21-5.64-4.18-8.64-5.97l-.53 1.8c-.8 2.68-4.84 2.5-5.34-.25-.15-.79.1-1.6.63-2.19l1.34-1.47C92.86 5.4 89.52 4.02 86.1 3l-1.99-.61-.03 2.04c.01 1.59-1.69 2.88-3.26 2.44-1.58-.33-2.47-2.19-1.7-3.57l.99-1.9C75.82.58 71.37.11 67.01 0l.53 2.12c.4 1.47-.83 3.07-2.4 3.05-1.57.07-2.87-1.45-2.52-2.94l.46-2.16-2.26.19c-3.65.27-7.33.95-10.9 1.74l1.12 1.95c.36.64.42 1.44.13 2.12-.55 1.43-2.54 2-3.8 1.08a2.458 2.458 0 0 1-1.09-1.89l-.12-2.15c-4.13 1.36-8.21 3.1-12.04 5.13l1.52 1.49c.55.54.82 1.34.72 2.1-.34 2.69-4.29 3.06-5.18.47l-.64-1.86c-2.94 1.95-5.83 4.07-8.42 6.43l-1.39 1.27 1.6.89c2.63 1.52 1.28 5.46-1.78 5.24-.91-.06-1.76-.54-2.28-1.29l-.87-1.23c-2.18 2.5-4.24 5.15-6.03 7.93l-.7 1.08 1.23.32c3.4.94 3.11 5.76-.4 6.36-1.03.19-2.14-.11-2.94-.8l-.68-.58c-.66 1.36-1.28 2.74-1.86 4.14.55-.3 1.12-.57 1.7-.82.2-.42.41-.83.62-1.25.38.25.79.43 1.22.56 1.6-.53 3.26-.9 4.96-1.17.31-.29.58-.62.8-1 1.45-2.24.54-5.34-1.7-6.7 1.15-1.57 2.38-3.09 3.67-4.55 2.03 1.79 5.52 1.85 7.48-.18 2.05-1.87 2.07-5.12.4-7.18 1.31-1.06 2.66-2.08 4.05-3.04.64.82 1.52 1.48 2.51 1.84 5.06 1.81 9.27-3.21 7.39-7.43 1.43-.66 2.89-1.27 4.37-1.82.42.92 1.08 1.74 1.93 2.31 4.47 3.05 9.94-.79 9.29-5.38 1.5-.27 3.02-.5 4.55-.67.52 2.65 3.05 4.88 5.95 4.73 2.92.01 5.35-2.33 5.72-5.01 1.57.1 3.13.25 4.68.46-.09 1 .09 2.01.53 2.91 1.47 3.21 6.07 4.27 8.85 2.03.83-.63 1.46-1.49 1.82-2.44 1.57.5 3.11 1.07 4.63 1.69-.37.95-.47 2-.27 2.98.56 3.4 4.62 5.51 7.83 4.08.98-.41 1.83-1.09 2.43-1.94 1.45.91 2.87 1.89 4.25 2.91-1.58 2.12-1.41 5.37.7 7.16 2.04 1.93 5.43 1.79 7.44.01 1.28 1.34 2.49 2.74 3.64 4.18-3.59 2.58-2.41 8.64 2.57 9.2 1.13.13 2.29-.14 3.25-.71.97 1.74 1.85 3.53 2.64 5.35h.01Z" fill="#FCFCFC"/>
  <path d="M111.71 40.32h.16c-8.74-15.91-25.88-27.12-45.92-27.04C51 13.2 36.21 19.83 26.6 30.95a48.444 48.444 0 0 0-4.5 5.93c.68-.01 1.36-.01 2.04 0 3.26-4.46 7.28-8.39 11.92-11.53C47.6 17.3 62.6 14.22 76.49 17.11c14.75 2.88 27.98 11.24 35.22 23.21ZM117.35 44.91c-5.78-.16-11.58 3.54-13.1 8.49 3.26-4.48 7.47-6.5 12.58-6.5 5.11-.01 9.31 2.07 12.46 6.34-1.5-4.2-6.23-8.18-11.94-8.33Z" fill="#FCFCFC"/>
  <path d="M139.25 52.33c-.61-.59-1.2-1.2-1.83-1.76-5.15-4.58-11.18-7.31-17.67-9.06-8.44-2.29-17.05-2.81-25.73-2.78-.49 0-1.03-.16-1.49-.39-3.67-1.83-7.27-3.86-11.01-5.53-6.81-3.04-13.94-4.62-21.4-4.58-9 .04-17.9 1.09-26.74 2.82-6.15 1.21-12.21 2.76-18.21 4.55l.03-.02s-7.9 1.36-9.8-1.71l-3.87-.73s.54 2.69-.79 8.59c-.55.72-.84 1.55-.72 2.54.32 2.51 1.86 4.3 3.47 6.24.02-.3.04-.4.04-.5.22-10.73 16.74-11.26 21.22-10.27 7.8 1.74 11.67 2.12 32.39 15.11.05-.09-11.63-9.03-18.34-12.68-1.53-.83-3.21-1.35-4.84-1.95-1.58-.58-3.2-1.07-4.8-1.6.02-.1.05-.21.08-.31 2.24.53 4.49 1 6.72 1.58 3.41.91 6.77 2.11 10.23 2.79 4.56.89 9.18 1.53 13.8 2.05 8.37.96 40.24 2.56 40.69 2.51-.52-.17-31.88-4.74-37.68-5.52-4.21-.57-8.44-1.02-12.61-1.79-1.87-.35-3.64-1.31-5.44-2.04-2.21-.9-4.4-1.86-6.6-2.79-.3-.13-.59-.3-.88-.46 0-.1.01-.2.01-.3 1.87-.31 3.72-.66 5.59-.94 6.93-1.05 13.89-1.71 20.91-1.52 2.36.06 4.69.28 6.99.63 5.01 1.38 9.77 3.48 14.37 6.01.1.05.18.14.37.29-2.39-.26-4.64-.57-6.9-.74-1.12-.09-1.95-.39-2.42-1.53-.2-.47-.58-1.03-1-1.18-1.13-.42-2.32-.69-3.51-.91-.91-.17-1.38.17-1.8 1.04-.71 1.48.3 3.26 1.89 3.37 3.22.23 6.44.49 9.66.74 2.94.22 5.88.53 8.82.65 3.38.14 6.76.07 10.14.19 6.39.24 12.7 1.12 18.89 2.84 5.76 1.6 10.94 4.17 14.44 9.48.1.14.32.29.48.29 1.66-.08 3.31-.2 5.13-.31-.17-.24-.22-.34-.28-.4v-.01Z" fill="#FCFCFC"/>
</svg>