<svg width="32.504" height="32.502" fill="none" xmlns="http://www.w3.org/2000/svg">
  <path d="M32.5 11.24a11.247 11.247 0 0 1-5.09 9.43 11.292 11.292 0 0 1-5.23 1.8c-1.87.15-3.74-.16-5.45-.91l-8.14 9.41-.06.06c-.94.94-2.21 1.47-3.53 1.47a5.003 5.003 0 0 1-5-5c0-1.33.52-2.6 1.46-3.54.02-.02.04-.04.07-.06l9.41-8.13c-.85-1.93-1.13-4.06-.83-6.14a11.35 11.35 0 0 1 2.55-5.65c1.36-1.6 3.14-2.8 5.14-3.44 2-.65 4.15-.72 6.19-.21a1.243 1.243 0 0 1 .89.86c.07.21.07.43.02.64-.05.21-.15.4-.3.56l-5.85 6.35.88 4.12 4.12.88 6.35-5.86a1.264 1.264 0 0 1 1.21-.28c.2.06.39.18.54.34.15.15.26.35.31.56.23.9.34 1.82.34 2.74Z" fill="#FCFCFC"/>
</svg>