<svg width="15.125000" height="19.250000" viewBox="0 0 15.125 19.25" fill="none" xmlns="http://www.w3.org/2000/svg" xmlns:xlink="http://www.w3.org/1999/xlink">
	<desc>
			Created with Pixso.
	</desc>
	<defs/>
	<path id="Vector" d="M7.56 0C5.55 0 3.63 0.79 2.21 2.21C0.79 3.63 0 5.55 0 7.56C0 14.03 6.87 18.92 7.16 19.12C7.28 19.2 7.42 19.25 7.56 19.25C7.7 19.25 7.84 19.2 7.95 19.12C8.25 18.92 15.12 14.03 15.12 7.56C15.12 5.55 14.32 3.63 12.9 2.21C11.48 0.79 9.56 0 7.56 0ZM7.56 4.81C8.1 4.81 8.63 4.97 9.09 5.27C9.54 5.57 9.89 6 10.1 6.51C10.31 7.01 10.36 7.56 10.25 8.09C10.15 8.63 9.89 9.12 9.5 9.5C9.12 9.89 8.63 10.15 8.09 10.25C7.56 10.36 7.01 10.31 6.51 10.1C6 9.89 5.57 9.54 5.27 9.09C4.97 8.63 4.81 8.1 4.81 7.56C4.81 6.83 5.1 6.13 5.61 5.61C6.13 5.1 6.83 4.81 7.56 4.81Z" fill="#FCFCFC" fill-opacity="1.000000" fill-rule="nonzero"/>
</svg>
