<svg width="82.000000" height="74.000000" viewBox="0 0 82 74" fill="none" xmlns="http://www.w3.org/2000/svg" xmlns:xlink="http://www.w3.org/1999/xlink">
	<desc>
			Created with Pixso.
	</desc>
	<defs/>
	<rect id="icon" rx="14.500000" width="73.000000" height="73.000000" transform="translate(0.500000 0.500000)" fill="#DD293F" fill-opacity="1.000000"/>
	<rect id="Wrench" rx="-0.500000" width="39.000000" height="39.000000" transform="translate(17.500000 17.500000)" fill="#FFFFFF" fill-opacity="0"/>
	<path id="Vector" d="M53.25 32C53.25 33.87 52.78 35.71 51.89 37.35C51 39 49.72 40.4 48.15 41.42C46.59 42.45 44.79 43.06 42.92 43.22C41.06 43.37 39.19 43.06 37.47 42.31L29.34 51.72C29.32 51.74 29.3 51.76 29.28 51.78C28.34 52.72 27.07 53.25 25.74 53.25C24.42 53.25 23.14 52.72 22.21 51.78C21.27 50.84 20.74 49.57 20.74 48.25C20.74 46.92 21.27 45.65 22.21 44.71C22.23 44.69 22.25 44.67 22.27 44.65L31.68 36.52C30.84 34.59 30.55 32.46 30.86 30.38C31.16 28.3 32.04 26.34 33.4 24.73C34.76 23.13 36.54 21.93 38.55 21.29C40.55 20.64 42.69 20.57 44.74 21.08C44.95 21.14 45.14 21.24 45.3 21.39C45.45 21.54 45.57 21.73 45.63 21.94C45.69 22.15 45.7 22.37 45.65 22.58C45.6 22.79 45.5 22.98 45.35 23.14L39.5 29.5L40.38 33.61L44.5 34.5L50.85 28.63C51.01 28.49 51.2 28.38 51.41 28.33C51.62 28.28 51.84 28.29 52.05 28.35C52.26 28.41 52.45 28.53 52.6 28.69C52.75 28.84 52.85 29.04 52.91 29.25C53.13 30.15 53.25 31.07 53.25 32Z" fill="#FCFCFC" fill-opacity="1.000000" fill-rule="nonzero"/>
</svg>
