<svg width="75" height="74" viewBox="0 0 75 74" fill="none" xmlns="http://www.w3.org/2000/svg">
<rect x="0.625" width="74" height="74" rx="15" fill="#DD293F"/>
<path d="M51.375 37.3375C51.3813 37.1125 51.3813 36.8875 51.375 36.6625L53.7063 33.75C53.8285 33.597 53.9131 33.4175 53.9533 33.2259C53.9934 33.0343 53.988 32.836 53.9375 32.6468C53.5547 31.2105 52.983 29.8313 52.2375 28.5453C52.1398 28.377 52.0042 28.2339 51.8414 28.1273C51.6787 28.0207 51.4933 27.9535 51.3 27.9312L47.5938 27.5187C47.4396 27.3562 47.2833 27.2 47.125 27.05L46.6875 23.3343C46.665 23.1409 46.5976 22.9554 46.4907 22.7927C46.3839 22.6299 46.2404 22.4943 46.0719 22.3968C44.786 21.6519 43.4067 21.0813 41.9703 20.6999C41.7812 20.6494 41.5828 20.644 41.3912 20.6842C41.1996 20.7244 41.0201 20.809 40.8672 20.9312L37.9625 23.2499C37.7375 23.2499 37.5125 23.2499 37.2875 23.2499L34.375 20.9234C34.2221 20.8011 34.0426 20.7165 33.851 20.6764C33.6594 20.6362 33.461 20.6416 33.2719 20.6921C31.8356 21.075 30.4563 21.6466 29.1703 22.3921C29.0021 22.4898 28.8589 22.6255 28.7523 22.7882C28.6457 22.951 28.5786 23.1364 28.5563 23.3296L28.1438 27.0421C27.9813 27.1973 27.825 27.3536 27.675 27.5109L23.9594 27.9374C23.766 27.96 23.5805 28.0273 23.4177 28.1342C23.2549 28.2411 23.1194 28.3845 23.0219 28.5531C22.2771 29.8393 21.706 31.2185 21.3234 32.6546C21.2731 32.8439 21.268 33.0423 21.3084 33.2339C21.3489 33.4255 21.4338 33.605 21.5563 33.7578L23.875 36.6625C23.875 36.8875 23.875 37.1125 23.875 37.3375L21.5484 40.25C21.4262 40.4029 21.3416 40.5824 21.3014 40.774C21.2613 40.9656 21.2667 41.1639 21.3172 41.3531C21.7001 42.7894 22.2717 44.1686 23.0172 45.4546C23.1149 45.6229 23.2505 45.766 23.4133 45.8726C23.576 45.9792 23.7614 46.0464 23.9547 46.0687L27.6609 46.4812C27.8162 46.6437 27.9724 46.8 28.1297 46.95L28.5625 50.6656C28.585 50.859 28.6524 51.0445 28.7593 51.2072C28.8662 51.37 29.0096 51.5056 29.1781 51.6031C30.4643 52.3478 31.8435 52.919 33.2797 53.3015C33.469 53.3518 33.6674 53.357 33.859 53.3165C34.0506 53.2761 34.23 53.1912 34.3828 53.0687L37.2875 50.75C37.5125 50.7562 37.7375 50.7562 37.9625 50.75L40.875 53.0812C41.0279 53.2034 41.2074 53.288 41.399 53.3282C41.5906 53.3684 41.789 53.363 41.9781 53.3125C43.4147 52.9303 44.794 52.3586 46.0797 51.6125C46.248 51.5148 46.3911 51.3791 46.4977 51.2164C46.6043 51.0536 46.6714 50.8682 46.6938 50.675L47.1063 46.9687C47.2688 46.8145 47.425 46.6583 47.575 46.5L51.2906 46.0625C51.4841 46.0399 51.6695 45.9726 51.8323 45.8657C51.9951 45.7588 52.1306 45.6154 52.2281 45.4468C52.9729 44.1606 53.544 42.7815 53.9266 41.3453C53.9769 41.156 53.982 40.9576 53.9416 40.766C53.9012 40.5744 53.8163 40.3949 53.6938 40.2421L51.375 37.3375ZM37.625 43.25C36.3889 43.25 35.1805 42.8834 34.1527 42.1966C33.1249 41.5099 32.3238 40.5338 31.8508 39.3917C31.3777 38.2497 31.2539 36.993 31.4951 35.7806C31.7363 34.5683 32.3315 33.4546 33.2056 32.5805C34.0797 31.7065 35.1933 31.1112 36.4057 30.87C37.6181 30.6289 38.8747 30.7527 40.0168 31.2257C41.1588 31.6988 42.1349 32.4998 42.8217 33.5276C43.5085 34.5554 43.875 35.7638 43.875 37C43.875 38.6576 43.2165 40.2473 42.0444 41.4194C40.8723 42.5915 39.2826 43.25 37.625 43.25Z" fill="#FCFCFC"/>
</svg>
