<svg width="82.000000" height="74.000000" viewBox="0 0 82 74" fill="none" xmlns="http://www.w3.org/2000/svg" xmlns:xlink="http://www.w3.org/1999/xlink">
	<desc>
			Created with Pixso.
	</desc>
	<defs/>
	<rect id="icon" rx="14.500000" width="73.000000" height="73.000000" transform="translate(0.500000 0.500000)" fill="#DD293F" fill-opacity="1.000000"/>
	<rect id="Handshake" rx="-0.500000" width="39.000000" height="39.000000" transform="translate(17.500000 17.500000)" fill="#FFFFFF" fill-opacity="0"/>
	<path id="Vector" d="M35.71 51.05C35.64 51.32 35.48 51.56 35.26 51.73C35.04 51.9 34.77 52 34.5 52C34.39 52 34.28 51.98 34.18 51.96L29.18 50.71C29.04 50.67 28.91 50.61 28.79 50.53L25.04 48.03C24.77 47.85 24.57 47.56 24.51 47.24C24.45 46.91 24.51 46.58 24.7 46.3C24.88 46.02 25.17 45.83 25.49 45.77C25.82 45.7 26.15 45.77 26.43 45.95L30 48.33L34.79 49.53C34.95 49.57 35.1 49.64 35.23 49.74C35.37 49.84 35.48 49.96 35.56 50.1C35.65 50.24 35.71 50.4 35.73 50.56C35.75 50.72 35.75 50.89 35.71 51.05ZM56.44 35.98C56.34 36.29 56.17 36.58 55.96 36.82C55.75 37.07 55.48 37.28 55.19 37.42L51.49 39.27L49.13 41.63L42.88 47.88C42.73 48.03 42.54 48.14 42.33 48.2C42.13 48.26 41.91 48.26 41.7 48.21L31.7 45.71C31.54 45.67 31.4 45.6 31.27 45.51L22.6 39.32L18.8 37.42C18.21 37.13 17.76 36.61 17.55 35.98C17.34 35.35 17.39 34.66 17.69 34.07L21.57 26.3C21.86 25.71 22.38 25.26 23.01 25.05C23.64 24.84 24.33 24.89 24.92 25.19L28.37 26.9L36.65 24.54C36.87 24.47 37.11 24.47 37.34 24.54L45.62 26.9L49.07 25.19C49.66 24.89 50.34 24.84 50.97 25.05C51.6 25.26 52.12 25.71 52.42 26.3L56.3 34.07C56.45 34.36 56.54 34.68 56.56 35.01C56.59 35.34 56.54 35.66 56.44 35.98ZM46.37 40.85L42.04 37.38C38.99 39.88 35.11 40.21 31.9 38.16C31.58 37.96 31.32 37.69 31.12 37.37C30.92 37.06 30.8 36.7 30.75 36.33C30.71 35.95 30.76 35.58 30.88 35.22C31.01 34.87 31.21 34.55 31.47 34.28C31.48 34.28 31.48 34.28 31.49 34.27L38.5 27.47L37 27.05L29.12 29.3L24.84 37.85L32.53 43.34L41.61 45.61L46.37 40.85ZM49.22 38L44.97 29.5L40 29.5L33.25 36.06C35.22 37.32 38.32 37.67 41.11 34.87C41.32 34.65 41.62 34.52 41.92 34.5C42.23 34.48 42.54 34.58 42.78 34.77L48.15 39.08L49.22 38Z" fill="#FCFCFC" fill-opacity="1.000000" fill-rule="nonzero"/>
</svg>
