<svg width="75" height="74" viewBox="0 0 75 74" fill="none" xmlns="http://www.w3.org/2000/svg">
<rect x="0.875" width="74" height="74" rx="15" fill="#DD293F"/>
<path d="M57.875 34.5V44.5C57.875 44.8315 57.7433 45.1495 57.5089 45.3839C57.2745 45.6183 56.9565 45.75 56.625 45.75C56.2935 45.75 55.9755 45.6183 55.7411 45.3839C55.5067 45.1495 55.375 44.8315 55.375 44.5V40.75H52.875V43.25C52.875 43.913 52.6116 44.5489 52.1428 45.0178C51.6739 45.4866 51.038 45.75 50.375 45.75H48.3922L42.875 51.2672C42.6437 51.5003 42.3684 51.6852 42.065 51.811C41.7616 51.9368 41.4362 52.001 41.1078 52H30.8922C30.5638 52.001 30.2384 51.9368 29.935 51.811C29.6316 51.6852 29.3563 51.5003 29.125 51.2672L23.6078 45.75C23.3747 45.5187 23.1898 45.2434 23.064 44.94C22.9382 44.6366 22.874 44.3112 22.875 43.9828V40.75H20.375V44.5C20.375 44.8315 20.2433 45.1495 20.0089 45.3839C19.7745 45.6183 19.4565 45.75 19.125 45.75C18.7935 45.75 18.4755 45.6183 18.2411 45.3839C18.0067 45.1495 17.875 44.8315 17.875 44.5V34.5C17.875 34.1685 18.0067 33.8505 18.2411 33.6161C18.4755 33.3817 18.7935 33.25 19.125 33.25C19.4565 33.25 19.7745 33.3817 20.0089 33.6161C20.2433 33.8505 20.375 34.1685 20.375 34.5V38.25H22.875V29.5C22.875 28.837 23.1384 28.2011 23.6072 27.7322C24.0761 27.2634 24.712 27 25.375 27H35.375V24.5H31.625C31.2935 24.5 30.9755 24.3683 30.7411 24.1339C30.5067 23.8995 30.375 23.5815 30.375 23.25C30.375 22.9185 30.5067 22.6005 30.7411 22.3661C30.9755 22.1317 31.2935 22 31.625 22H41.625C41.9565 22 42.2745 22.1317 42.5089 22.3661C42.7433 22.6005 42.875 22.9185 42.875 23.25C42.875 23.5815 42.7433 23.8995 42.5089 24.1339C42.2745 24.3683 41.9565 24.5 41.625 24.5H37.875V27H41.1078C41.4362 26.999 41.7616 27.0632 42.065 27.189C42.3684 27.3148 42.6437 27.4997 42.875 27.7328L48.3922 33.25H50.375C51.038 33.25 51.6739 33.5134 52.1428 33.9822C52.6116 34.4511 52.875 35.087 52.875 35.75V38.25H55.375V34.5C55.375 34.1685 55.5067 33.8505 55.7411 33.6161C55.9755 33.3817 56.2935 33.25 56.625 33.25C56.9565 33.25 57.2745 33.3817 57.5089 33.6161C57.7433 33.8505 57.875 34.1685 57.875 34.5Z" fill="#FCFCFC"/>
</svg>
