<svg width="1920" height="362" viewBox="0 0 1920 362" fill="none" xmlns="http://www.w3.org/2000/svg">
<path d="M-75.2556 173.087C-49.3282 146.9 -30.2028 114.236 4.30469 98.1722C34.2891 84.214 67.4614 78.7637 100.125 75.7173C144.442 71.5841 189.197 70.0867 233.694 70.2971C315.044 70.6817 400.404 84.3545 478.569 107.077C577.894 135.95 669.201 185.802 763.128 227.966C870.964 276.374 985.879 317.827 1104.02 330.852C1197.21 341.126 1292.2 336.366 1383.54 315.85C1422.28 307.151 1460.26 294.696 1497.56 281.2C1546.74 263.408 1592.66 238.649 1638.87 214.319C1684.08 190.517 1795.26 130.212 1840.97 106.303C1868.76 91.7622 1911.77 68.8751 1944.34 56.5531C1981.6 42.454 2024.27 39.7375 2063.48 35.3564C2095.64 31.7638 2127.84 28.444 2159.98 25" stroke="url(#paint0_linear_39_1984)" stroke-width="50" stroke-linecap="round"/>
<defs>
<linearGradient id="paint0_linear_39_1984" x1="1042.36" y1="25" x2="1042.36" y2="336.09" gradientUnits="userSpaceOnUse">
<stop stop-color="#161616"/>
<stop offset="1" stop-color="#DD293F" stop-opacity="0.6"/>
</linearGradient>
</defs>
</svg>
