<svg width="100.000000" height="47.000004" viewBox="0 0 100 47" fill="none" xmlns="http://www.w3.org/2000/svg" xmlns:xlink="http://www.w3.org/1999/xlink">
	<desc>
			Created with Pixso.
	</desc>
	<defs/>
	<path id="Vector" d="M0 42.69L2.77 42.69C2.77 43.02 2.86 43.32 3.05 43.58C3.24 43.84 3.49 44.04 3.81 44.18C4.12 44.32 4.45 44.39 4.79 44.39C5.15 44.39 5.48 44.31 5.78 44.16C6.07 44 6.3 43.78 6.47 43.52C6.64 43.25 6.73 42.96 6.73 42.65C6.73 42.23 6.57 41.85 6.27 41.52C5.96 41.19 5.6 40.97 5.2 40.88C4.8 40.79 4.47 40.75 4.2 40.75C3.85 40.75 3.48 40.8 3.09 40.89L2.07 39.21L5.39 36.44L0.26 36.44L0.26 33.91L7.62 33.91L9.17 36.48L6.18 39.1C6.8 39.17 7.36 39.36 7.85 39.67C8.35 39.97 8.74 40.38 9.03 40.9C9.32 41.42 9.47 42.03 9.47 42.73C9.47 43.64 9.24 44.41 8.77 45.04C8.3 45.66 7.71 46.12 7 46.43C6.28 46.73 5.55 46.88 4.79 46.88C3.93 46.88 3.14 46.69 2.41 46.31C1.67 45.92 1.09 45.41 0.65 44.77C0.22 44.13 0 43.43 0 42.69L0 42.69Z" fill="#FCFCFC" fill-opacity="1.000000" fill-rule="nonzero"/>
	<path id="Vector" d="M11.07 42.69L13.84 42.69C13.84 43.02 13.93 43.32 14.12 43.58C14.31 43.84 14.56 44.04 14.88 44.18C15.19 44.32 15.52 44.39 15.86 44.39C16.22 44.39 16.55 44.31 16.85 44.16C17.14 44 17.38 43.78 17.55 43.52C17.72 43.25 17.8 42.96 17.8 42.65C17.8 42.23 17.65 41.85 17.34 41.52C17.03 41.19 16.67 40.97 16.27 40.88C15.87 40.79 15.54 40.75 15.27 40.75C14.92 40.75 14.55 40.8 14.16 40.89L13.14 39.21L16.46 36.44L11.33 36.44L11.33 33.91L18.69 33.91L20.24 36.48L17.26 39.1C17.87 39.17 18.43 39.36 18.93 39.67C19.42 39.97 19.82 40.38 20.11 40.9C20.4 41.42 20.54 42.03 20.54 42.73C20.54 43.64 20.31 44.41 19.84 45.04C19.38 45.66 18.79 46.12 18.07 46.43C17.35 46.73 16.62 46.88 15.86 46.88C15.01 46.88 14.21 46.69 13.48 46.31C12.74 45.92 12.16 45.41 11.72 44.77C11.29 44.13 11.07 43.43 11.07 42.69L11.07 42.69Z" fill="#FCFCFC" fill-opacity="1.000000" fill-rule="nonzero"/>
	<path id="Vector" d="M25.82 36.22L30.51 36.22L33.9 46.74L30.62 46.74L30.1 45.14L26.21 45.14L25.7 46.74L22.41 46.74L25.82 36.22L25.82 36.22ZM29.48 42.93L28.24 38.85L28.09 38.85L26.84 42.93L29.48 42.93L29.48 42.93Z" fill="#FCFCFC" fill-opacity="1.000000" fill-rule="nonzero"/>
	<path id="Vector" d="M42.15 46.74L39.32 46.74L39.32 45.62L39.16 45.62C38.54 46.52 37.89 46.92 36.97 46.92C35.35 46.92 34.21 45.65 34.21 43.89L34.21 39.15L37.05 39.15L37.05 43.37C37.05 44.11 37.47 44.62 38.14 44.62C38.8 44.62 39.32 44.09 39.32 43.33L39.32 39.15L42.15 39.15L42.15 46.74L42.15 46.74Z" fill="#FCFCFC" fill-opacity="1.000000" fill-rule="nonzero"/>
	<path id="Vector" d="M44.01 44.01L44.01 41.11L43.01 41.11L43.01 39.15L44.12 39.15L44.63 36.79L46.86 36.79L46.86 39.15L48.49 39.15L48.49 41.11L46.86 41.11L46.86 43.87C46.86 44.46 47.22 44.86 47.78 44.86C47.99 44.86 48.29 44.81 48.53 44.75L48.53 46.67C48.04 46.84 47.31 46.93 46.82 46.93C45.11 46.93 44.01 45.75 44.01 44L44.01 44.01Z" fill="#FCFCFC" fill-opacity="1.000000" fill-rule="nonzero"/>
	<path id="Vector" d="M49.11 42.95C49.11 40.46 50.82 38.96 53.53 38.96C56.24 38.96 57.93 40.48 57.93 42.95C57.93 45.42 56.21 46.93 53.53 46.93C50.85 46.93 49.11 45.42 49.11 42.95ZM55.1 42.95C55.1 41.96 54.45 41.27 53.53 41.27C52.61 41.27 51.95 41.96 51.95 42.95C51.95 43.93 52.59 44.62 53.53 44.62C54.47 44.62 55.1 43.93 55.1 42.95Z" fill="#FCFCFC" fill-opacity="1.000000" fill-rule="nonzero"/>
	<path id="Vector" d="M59.14 36.22L64.17 36.22C67.01 36.22 68.79 37.69 68.79 39.95C68.79 42.21 67 43.68 64.14 43.68L62.32 43.68L62.32 46.74L59.14 46.74L59.14 36.21L59.14 36.22ZM63.8 41.45C64.88 41.45 65.59 40.86 65.59 39.95C65.59 39.04 64.88 38.45 63.8 38.45L62.32 38.45L62.32 41.45L63.8 41.45L63.8 41.45Z" fill="#FCFCFC" fill-opacity="1.000000" fill-rule="nonzero"/>
	<path id="Vector" d="M77.59 46.74L74.77 46.74L74.77 45.62L74.61 45.62C73.99 46.52 73.34 46.92 72.42 46.92C70.8 46.92 69.66 45.65 69.66 43.89L69.66 39.15L72.5 39.15L72.5 43.37C72.5 44.11 72.92 44.62 73.59 44.62C74.25 44.62 74.77 44.09 74.77 43.33L74.77 39.15L77.6 39.15L77.6 46.74L77.59 46.74Z" fill="#FCFCFC" fill-opacity="1.000000" fill-rule="nonzero"/>
	<path id="Vector" d="M78.93 35.77L81.76 35.77L81.76 46.74L78.93 46.74L78.93 35.77Z" fill="#FCFCFC" fill-opacity="1.000000" fill-rule="nonzero"/>
	<path id="Vector" d="M82.79 44.24L85.19 44.24C85.19 44.89 85.77 45.32 86.66 45.32C87.33 45.32 87.79 45.04 87.79 44.58C87.79 44.04 87.13 43.95 86.31 43.88C84.91 43.74 82.83 43.63 82.83 41.52C82.83 39.92 84.3 38.92 86.53 38.92C88.75 38.92 90.29 39.91 90.29 41.47L87.78 41.47C87.77 40.94 87.25 40.59 86.53 40.59C85.89 40.59 85.44 40.86 85.44 41.28C85.44 41.85 86.36 41.88 87.4 42C88.83 42.14 90.61 42.48 90.61 44.28C90.61 45.97 89.08 47 86.6 47C84.26 47 82.79 45.95 82.79 44.24L82.79 44.24Z" fill="#FCFCFC" fill-opacity="1.000000" fill-rule="nonzero"/>
	<path id="Vector" d="M91.32 42.92C91.32 40.51 93.14 38.97 95.73 38.97C98.31 38.97 100 40.52 100 42.95C100 43.17 99.98 43.55 99.95 43.7L94.24 43.7C94.43 44.52 95 45.04 95.85 45.04C96.53 45.04 97.01 44.7 97.25 44.21L99.69 44.64C99.3 46.07 97.69 46.93 95.7 46.93C93.11 46.93 91.32 45.36 91.32 42.92L91.32 42.92ZM97.13 42.23C97.06 41.48 96.47 40.86 95.66 40.86C94.86 40.86 94.36 41.39 94.21 42.23L97.13 42.23L97.13 42.23Z" fill="#FCFCFC" fill-opacity="1.000000" fill-rule="nonzero"/>
	<path id="Vector" d="M85.71 26.27L87.03 26.87C86.41 25.32 85.55 23.18 84.74 21.7L84.38 21.03L83.8 21.57C82.91 22.43 81.26 22.23 80.65 21.17C79.99 20.17 80.51 18.71 81.67 18.35L82.57 18.05C81.36 16.32 80.02 14.65 78.55 13.12L77.85 12.38L77.3 13.25C76.73 14.22 75.22 14.42 74.42 13.62C73.58 12.88 73.7 11.46 74.65 10.87L75.6 10.25L74.71 9.52C73 8.12 71.12 6.86 69.21 5.73L68.87 6.87C68.37 8.57 65.8 8.46 65.48 6.71C65.39 6.21 65.54 5.69 65.88 5.32L66.73 4.38C64.68 3.43 62.55 2.55 60.38 1.9L59.11 1.52L59.1 2.82C59.1 3.83 58.02 4.65 57.02 4.37C56.02 4.15 55.46 2.97 55.94 2.1L56.57 0.89C53.84 0.37 51.02 0.07 48.24 0L48.58 1.35C48.84 2.28 48.05 3.3 47.05 3.28C46.06 3.33 45.23 2.36 45.45 1.42L45.75 0.04L44.31 0.16C41.98 0.33 39.64 0.77 37.37 1.27L38.08 2.51C38.32 2.91 38.35 3.43 38.17 3.86C37.82 4.77 36.56 5.13 35.75 4.55C35.34 4.28 35.09 3.83 35.06 3.35L34.98 1.97C32.36 2.84 29.76 3.95 27.33 5.24L28.29 6.19C28.64 6.53 28.82 7.04 28.75 7.52C28.54 9.23 26.03 9.47 25.46 7.82L25.05 6.64C23.18 7.88 21.34 9.22 19.7 10.73L18.81 11.53L19.83 12.1C21.5 13.07 20.65 15.57 18.7 15.43C18.12 15.39 17.58 15.09 17.25 14.61L16.7 13.83C15.31 15.42 14 17.1 12.86 18.87L12.42 19.56L13.2 19.76C15.36 20.36 15.18 23.42 12.94 23.8C12.29 23.93 11.59 23.73 11.08 23.3L10.65 22.93C10.22 23.79 9.83 24.67 9.46 25.56C9.81 25.37 10.17 25.2 10.54 25.04C10.67 24.77 10.8 24.51 10.94 24.24C11.18 24.4 11.44 24.52 11.71 24.6C12.73 24.26 13.79 24.03 14.86 23.86C15.06 23.67 15.23 23.46 15.37 23.22C16.3 21.8 15.72 19.83 14.3 18.96C15.03 17.96 15.8 16.99 16.63 16.07C17.92 17.21 20.13 17.24 21.38 15.95C22.69 14.76 22.7 12.7 21.64 11.39C22.47 10.71 23.33 10.07 24.21 9.45C24.62 9.98 25.18 10.39 25.81 10.62C29.03 11.78 31.7 8.58 30.51 5.9C31.42 5.48 32.35 5.09 33.28 4.74C33.55 5.32 33.97 5.85 34.51 6.21C37.36 8.15 40.83 5.71 40.42 2.79C41.38 2.62 42.34 2.47 43.31 2.36C43.64 4.05 45.25 5.47 47.1 5.37C48.95 5.38 50.5 3.89 50.74 2.19C51.73 2.25 52.72 2.34 53.71 2.48C53.66 3.11 53.77 3.76 54.05 4.33C54.98 6.37 57.91 7.05 59.67 5.62C60.2 5.22 60.6 4.67 60.84 4.07C61.83 4.39 62.81 4.75 63.78 5.14C63.54 5.75 63.47 6.41 63.6 7.04C63.96 9.2 66.54 10.54 68.58 9.63C69.21 9.37 69.75 8.94 70.13 8.4C71.05 8.98 71.96 9.6 72.83 10.25C71.82 11.6 71.93 13.66 73.28 14.8C74.57 16.03 76.73 15.94 78.01 14.8C78.82 15.66 79.59 16.55 80.32 17.47C78.04 19.11 78.79 22.96 81.96 23.32C82.68 23.4 83.41 23.23 84.02 22.86C84.64 23.97 85.2 25.11 85.7 26.27L85.71 26.27Z" fill="#FCFCFC" fill-opacity="1.000000" fill-rule="nonzero"/>
	<path id="Vector" d="M76.66 25.64L76.77 25.64C71.21 15.52 60.31 8.39 47.57 8.44C38.06 8.39 28.66 12.61 22.55 19.68C21.49 20.87 20.54 22.13 19.68 23.45C20.12 23.44 20.55 23.44 20.98 23.45C23.06 20.61 25.61 18.12 28.56 16.12C35.9 11 45.44 9.04 54.27 10.88C63.65 12.71 72.06 18.02 76.66 25.64Z" fill="#FCFCFC" fill-opacity="1.000000" fill-rule="nonzero"/>
	<path id="Vector" d="M80.25 28.55C76.58 28.46 72.89 30.81 71.92 33.95C73.99 31.1 76.67 29.82 79.92 29.82C83.17 29.81 85.84 31.14 87.84 33.85C86.89 31.18 83.88 28.65 80.25 28.55L80.25 28.55Z" fill="#FCFCFC" fill-opacity="1.000000" fill-rule="nonzero"/>
	<path id="Vector" d="M94.18 33.27C93.79 32.9 93.42 32.51 93.01 32.15C89.74 29.24 85.91 27.51 81.78 26.39C76.41 24.94 70.93 24.6 65.42 24.62C65.1 24.62 64.76 24.52 64.47 24.38C62.13 23.21 59.85 21.93 57.47 20.86C53.14 18.93 48.61 17.92 43.86 17.95C38.14 17.98 32.48 18.64 26.86 19.74C22.95 20.51 19.1 21.49 15.28 22.63L15.3 22.62C15.3 22.62 10.28 23.49 9.07 21.54L6.61 21.07C6.61 21.07 6.95 22.78 6.1 26.53C5.76 26.99 5.57 27.52 5.65 28.15C5.85 29.74 6.83 30.88 7.85 32.11C7.87 31.93 7.88 31.86 7.88 31.8C8.02 24.98 18.52 24.64 21.37 25.27C26.33 26.37 28.79 26.62 41.97 34.87C42 34.82 34.57 29.14 30.3 26.81C29.33 26.28 28.26 25.95 27.23 25.57C26.22 25.2 25.19 24.89 24.17 24.55C24.19 24.49 24.21 24.42 24.22 24.36C25.65 24.69 27.08 24.99 28.5 25.37C30.67 25.94 32.81 26.7 35 27.14C37.9 27.7 40.84 28.11 43.78 28.44C49.1 29.05 69.37 30.07 69.65 30.04C69.32 29.93 49.38 27.02 45.69 26.53C43.01 26.17 40.33 25.88 37.67 25.39C36.49 25.17 35.36 24.56 34.22 24.09C32.81 23.52 31.42 22.91 30.02 22.31C29.83 22.23 29.64 22.12 29.46 22.03C29.46 21.96 29.46 21.9 29.47 21.84C30.65 21.63 31.83 21.42 33.02 21.24C37.43 20.57 41.85 20.15 46.31 20.27C47.82 20.31 49.3 20.45 50.76 20.67C53.94 21.55 56.97 22.88 59.9 24.49C59.96 24.52 60.01 24.58 60.14 24.68C58.61 24.51 57.18 24.31 55.75 24.21C55.03 24.15 54.51 23.96 54.2 23.23C54.08 22.93 53.84 22.58 53.57 22.48C52.85 22.22 52.1 22.04 51.34 21.9C50.76 21.8 50.46 22.01 50.2 22.56C49.74 23.51 50.39 24.64 51.4 24.71C53.44 24.85 55.49 25.02 57.54 25.18C59.41 25.32 61.28 25.51 63.15 25.59C65.3 25.68 67.45 25.63 69.59 25.71C73.66 25.87 77.67 26.43 81.61 27.52C85.27 28.54 88.56 30.17 90.79 33.55C90.85 33.64 90.99 33.73 91.09 33.73C92.15 33.68 93.2 33.61 94.35 33.53C94.25 33.38 94.22 33.32 94.18 33.28L94.18 33.27Z" fill="#FCFCFC" fill-opacity="1.000000" fill-rule="nonzero"/>
</svg>
