<svg width="15.624756" height="15.624847" viewBox="0 0 15.6248 15.6248" fill="none" xmlns="http://www.w3.org/2000/svg" xmlns:xlink="http://www.w3.org/1999/xlink">
	<desc>
			Created with Pixso.
	</desc>
	<defs/>
	<path id="Vector" d="M15.61 11.8C15.47 12.86 14.95 13.83 14.15 14.53C13.34 15.23 12.31 15.62 11.25 15.62C5.04 15.62 0 10.57 0 4.37C-0.01 3.3 0.38 2.27 1.08 1.47C1.79 0.66 2.76 0.14 3.82 0C4.08 -0.03 4.36 0.03 4.59 0.16C4.82 0.29 5.01 0.5 5.12 0.75L6.77 4.43L6.77 4.44C6.85 4.63 6.88 4.84 6.86 5.04C6.85 5.25 6.78 5.45 6.67 5.62C6.65 5.64 6.64 5.66 6.62 5.68L5 7.61C5.58 8.8 6.82 10.03 8.03 10.62L9.93 9C9.95 8.98 9.97 8.97 9.99 8.96C10.16 8.84 10.36 8.77 10.57 8.75C10.77 8.73 10.98 8.76 11.17 8.85L11.18 8.85L14.86 10.5C15.11 10.61 15.32 10.79 15.45 11.02C15.59 11.26 15.64 11.53 15.61 11.8Z" fill="#FCFCFC" fill-opacity="1.000000" fill-rule="nonzero"/>
</svg>
